<?xml version="1.0" encoding="utf-8"?>
<svg id="master-artboard" viewBox="0 0 1400 980" version="1.1" xmlns="http://www.w3.org/2000/svg" x="0px" y="0px" enable-background="new 0 0 1400 980" width="1400px" height="980px">


<path d="M100.2,64.1h2.1c1.2,0,1.9,0.4,2.3,1.2c0.4,0.8,1.1,1.2,2.1,1.2c1.2,1.3,1.8,2.2,2,2.7s0.3,1.3,0.3,2.5&#10;&#9;c1,1.3,1.7,2.2,1.8,2.7s0.3,1.3,0.3,2.5c0,1.3,0.4,2.6,1.1,3.8c0.7,1.2,1.1,2.5,1.1,3.8V92c1.2,2.5,1.9,5.1,2.3,7.7&#10;&#9;c0.4,2.6,1.1,5.2,2.1,7.7c0,1.3,0.4,2.6,1.2,3.8c0.8,1.2,1.2,2.5,1.2,3.8h1.9v2.5c1.2,1.3,1.8,3,2,5.1c0.2,2.1,0.3,3.8,0.3,5.1&#10;&#9;c1,2.5,2,4.6,3,6.2c1,1.6,1.5,3.7,1.5,6.2v5.1h2.1c0,1.3,0.1,2.6,0.3,3.9c0.2,1.3,0.9,2.6,2,3.9v2.5c1,1.3,1.8,2.7,2.1,4.2&#10;&#9;c0.4,1.5,1.2,3.5,2.3,6c0,1.3,0.1,2.6,0.3,3.8c0.2,1.2,0.8,2.5,1.8,3.8c0,1.2,0.1,2.3,0.3,3.3c0.2,1,0.9,1.6,2,1.6v5.1l2.1,2.7v2.5&#10;&#9;c1.2,1.3,1.8,3,2,5.1c0.2,2.1,0.3,3.7,0.3,4.9h1.9v5.1c1.2,0,1.8,0.1,2,0.3c0.2,0.2,0.3,1,0.3,2.3c2.2-1.3,4.3-1.6,6.4-0.7&#10;&#9;c2.1,0.9,3.6,1.9,4.7,3.1v5.1v2.7h-2.1c-1.2,1.2-1.9,2-2.3,2.5c-0.4,0.4-1.1,1.3-2.1,2.7c-1.2,0-1.9,0.4-2.3,1.2&#10;&#9;c-0.4,0.8-1.1,1.2-2.1,1.2c0,1.3-0.4,2.2-1.2,2.6c-0.8,0.4-1.2,1.1-1.2,2.3c-1,0-1.6,0.1-1.8,0.3c-0.1,0.2-0.2,1-0.2,2.3&#10;&#9;c-1.2,0-1.9,0.4-2.3,1.2c-0.4,0.8-1.1,1.2-2.1,1.2c-1.2-1.2-2.3-1.9-3.4-2.1c-1.1-0.2-2.2-0.3-3.4-0.3H129h-4.5&#10;&#9;c-1,0-2.3,0.1-3.9,0.3c-1.6,0.2-3.2,0.4-4.9,0.6c-1.7,0.1-3.3,0.2-4.9,0.1c-1.6-0.1-2.9-0.4-4.1-1h-2.1c-2.2,0-4.4,0.4-6.6,1.2&#10;&#9;c-2.2,0.8-4.4,1.2-6.6,1.2l-2.3-2.5c-1,0-1.3-0.5-0.8-1.6c0.5-1,0.8-2.2,0.8-3.3v-2.7c0.3,0,0.5-0.1,0.8-0.2&#10;&#9;c0.1-0.1,0.2-0.4,0.2-0.7c0-0.3-0.3-0.8-1-1.6h4.5v-2.7c1.2,0,1.9-0.4,2.2-1.2c0.3-0.8,1-1.2,2-1.2v-2.7c-1-1.2-1.7-2.9-2-5&#10;&#9;c-0.3-2.2-1.1-3.9-2.2-5.2c1.2,0,1.5-0.5,0.9-1.6c-0.6-1-0.9-2.2-0.9-3.6v-2.2c0-1.3-0.1-2.1-0.3-2.3c-0.2-0.2-0.8-0.3-1.8-0.3H80.2&#10;&#9;h-8.9c-1,1.3-1.6,3-1.8,5.1c-0.1,2.1-0.2,3.7-0.2,4.9v5.1c1,1.3,2.5,2.1,4.3,2.3c1.8,0.2,3.3,0.3,4.5,0.3v-2.7c1,0,2.1,0.4,3.1,1.3&#10;&#9;c0.5,0.4,1,0.9,1.4,1.3v2.5c0,1.3-0.1,3-0.3,4.9c-0.2,1.9-0.9,2.9-2,2.9v2.5c-1,0-2.1,0.4-3.3,1.3c-1.2,0.9-2.3,1.3-3.3,1.3&#10;&#9;c-1.2,0-1.9,0.5-2.2,1.4c-0.3,1-1,2.1-2,3.5c-0.4,0-0.8,0.1-1.2,0.2c-0.8,0.3-1.2,1-1.2,2.2h-2.1h-2.1H51.4c-1-1.2-2.6-1.5-4.6-0.9&#10;&#9;c-2,0.6-4.1,0.9-6.3,0.9H29.2v-2.5v-7.6v-2.5c1.2,0,2.2-0.1,3.1-0.3c0.9-0.2,1.4-1,1.4-2.3H36c2.2-1.2,3.7-2.5,4.5-3.8&#10;&#9;c0.8-1.3,2.3-2.6,4.5-3.8c0-1.3,0.1-2.2,0.2-2.7c0.1-0.4,0.7-1.3,1.8-2.5v-2.7v-2.5l2.3-2.7l-2.3-2.2c0.6,0,1.1-0.1,1.3-0.4&#10;&#9;c0.2-0.3,0.4-0.6,0.7-0.9l0.4-1.3c0-1.2,0.1-1.9,0.3-2.1c0.2-0.2,0.8-0.3,1.8-0.3V186v-5.1h2.3v-5.1c0-1.2,0.4-2,1.1-2.5&#10;&#9;c0.7-0.4,1.1-1.3,1.1-2.7c0-1.2,0.1-2.4,0.3-3.7c0.2-1.3,0.9-2.5,2-3.7c-1.2,0-1.5-0.4-1-1.3c0.1-0.4,0.5-0.9,1-1.3&#10;&#9;c0-1.2,0.1-2.3,0.3-3.5c0.2-1.1,0.8-1.7,1.8-1.7c0-1.9,0.2-3.9,0.7-5.8c0.5-1.9,1-3.8,1.6-5.7c0.6-1.9,1.1-3.7,1.6-5.7&#10;&#9;c0.5-1.9,0.7-3.8,0.7-5.6l2.1-2.7c0-1.2,0.4-2.9,1.2-5c0.8-2.2,1.2-3.8,1.2-5c1-2.5,2-5.2,2.9-7.9c0.9-2.7,1.4-6,1.4-9.9&#10;&#9;c0-2.5,0.4-4.5,1.1-6c0.7-1.5,1.1-2.9,1.1-4.2v-2.5c0-1.3,0.4-2.2,1.2-2.7c0.8-0.4,1.2-1.3,1.2-2.5l1.4-1.6c0.4-0.4,0.8-1,1.4-1.6&#10;&#9;c0.5-0.6,1.1-1.2,1.8-1.8c0.3,0.1,0.6,0.1,1-0.2c0.8-0.3,1.2-1.1,1.2-2.5c1.2-1.2,2.7-2,4.6-2.5c1.9-0.4,3.3-1.3,4.4-2.7&#10;&#9;c1.2-1.2,2.3-2.5,3.3-3.8C98,66.6,99.1,65.3,100.2,64.1z M33.7,226.7v-2.7c-0.4,0.1-0.7,0.3-0.8,0.4c-0.1,0.3-0.2,0.6-0.2,0.8&#10;&#9;C32.7,225.5,33.1,226,33.7,226.7z M41.5,227c0.4-0.1,0.8-0.2,1.2-0.2c-1,0-1.7,0.1-1.8,0.2c-0.2,0.1-0.3,0.8-0.3,2&#10;&#9;C40.5,227.9,40.8,227.3,41.5,227z M49.3,229c0.3,0,0.6-0.1,1-0.2c0.8-0.3,1.2-1,1.2-2c-1,0-1.7,0.4-1.9,1.1&#10;&#9;C49.3,228.3,49.3,228.7,49.3,229z M53.7,206.2c-0.4,0-0.8,0.1-1.2,0.2c-0.8,0.3-1.2,1-1.2,2.2c1.2,0,1.8-0.1,2-0.3&#10;&#9;C53.6,208.1,53.7,207.4,53.7,206.2c1,0,1.7-0.1,1.8-0.3c0.2-0.2,0.3-1,0.3-2.3c0,0.4-0.1,0.9-0.2,1.3&#10;&#9;C55.4,205.8,54.8,206.2,53.7,206.2z M129,153c-1.2-2.5-2.3-5.5-3.4-8.9c-1.1-3.4-2.2-6.4-3.4-8.9c0-1.9-0.2-3.6-0.7-4.9&#10;&#9;c-0.5-1.3-0.9-2.7-1.5-4c-0.5-1.3-1-2.7-1.5-4c-0.5-1.3-0.7-3-0.7-4.9c-0.5-0.6-0.9-1.5-1.3-2.7c-0.3-1.2-0.6-2.5-0.9-3.9&#10;&#9;c-0.3-1.4-0.6-2.9-1-4.3c-0.4-1.5-0.8-2.9-1.4-4.2c0-1.2-0.4-2-1.1-2.5c-0.7-0.4-1.1-1.3-1.1-2.7c0-2.5-0.4-5.2-1.1-7.9&#10;&#9;c-0.7-2.7-1.1-6-1.1-9.7c-1.2,0-1.9-0.4-2.1-1.3c-0.3-0.4-0.3-0.9-0.2-1.3c0-1.2-0.4-1.9-1.2-2.2c-0.4-0.1-0.7-0.2-1-0.2&#10;&#9;c-0.7-0.7-1.2-1.1-1.8-1.1c-0.5,0-1,0.1-1.4,0.2c-0.5,0.3-1,0.6-1.4,0.9c-1.2,1.3-1.9,2.5-2.1,3.6c-0.3,0.6-0.3,1.1-0.2,1.6&#10;&#9;c0,2.5-0.3,5.1-1,7.6c-0.7,2.5-1,5.1-1,7.6c-1.2,1.2-1.8,2.5-2,3.8c-0.2,1.3-0.3,2.6-0.3,3.8l-2.1,2.7v2.5v4.9&#10;&#9;c-1.2,0-1.9,0.4-2.1,1.3c-0.3,0.4-0.3,0.9-0.2,1.3v2.5c-1,1.2-1.7,2.4-1.9,3.6c-0.1,0.6-0.2,1.1-0.2,1.6v2.5l-2.3,2.7v2.5l-2.1,2.7&#10;&#9;v2.5c-1.2,1.3-1.9,3-2.3,5.1c-0.4,2.1-1.1,3.7-2.1,4.9c0,1.3-0.3,2.6-0.9,3.9c-0.6,1.3-0.3,2.6,0.9,3.9c-1.2,0-1.8,0.1-2,0.3&#10;&#9;c-0.2,0.2-0.3,0.9-0.3,2.1v2.7c-0.4,0.4-0.8,1-1.2,1.6c-0.7,1-1,2.2-1,3.6c-1.2,2.5-1.9,5-2.2,7.5c-0.3,2.5-1,4.9-2,7.5&#10;&#9;c0,1.3-0.4,2.6-1.2,3.9c-0.8,1.3-1.2,2.6-1.2,3.9c0,1.2-0.4,2.9-1.1,5c-0.7,2.2-1.1,3.9-1.1,5.2c-1,0-1.7,0.4-1.9,1.1&#10;&#9;c-0.1,0.4-0.2,0.8-0.2,1.1v2.7c-1.2,1.2-1.8,2.5-2,3.8c-0.2,1.3-0.3,2.6-0.3,3.8c-1,0-1.7,0.1-1.8,0.3c-0.2,0.2-0.3,1-0.3,2.3&#10;&#9;c-1.2,0-1.8,0.1-2,0.3c-0.2,0.2-0.3,0.9-0.3,2.1h-2.1h4.5c0.5,0.7,1.1,1.3,1.7,1.7c0.6,0.4,1.1,0.6,1.5,0.8c0.5,0.3,1,0.4,1.4,0.2&#10;&#9;h8.6h2.3h4.5c-1.2,0-2.7-0.4-4.5-1.3c-1.8-0.9-3.2-1.3-4.3-1.3c-1.2,0-2.2-1-3.1-2.9c-0.9-1.9-1.4-3.5-1.4-4.7v-2.7&#10;&#9;c1-1.2,1.4-2.4,1.1-3.7c-0.3-1.3,0-2.5,1.1-3.7c0-1.3,0.1-2.2,0.3-2.7c0.2-0.4,0.9-1.3,2-2.5v-2.7c0-2.5,0.3-4.6,1-6.3&#10;&#9;c0.6-1.7,1-3.8,1-6.3c1.2,0,2.3-0.1,3.4-0.3c1.1-0.2,2.2-0.9,3.4-2.1c0,1.2,0.1,1.9,0.3,2.1c0.2,0.2,0.8,0.3,1.8,0.3h2.3&#10;&#9;c1,0,1.8-0.3,2.1-0.9c0.4-0.6,1.2-0.3,2.3,0.9H96h1.9h2.3h4.5h2.1c0.5-0.6,1-0.8,1.4-0.7c0.4,0.1,0.7,0.4,1,0.9&#10;&#9;c0.3,0.4,0.5,0.9,0.9,1.4c0.3,0.5,0.7,0.8,1.3,0.8v2.7c1.2,1.5,1.8,2.7,1.9,3.6c0.1,0.6,0.2,1.1,0.2,1.6v2.5l1.2,0.4&#10;&#9;c0.3,0.3,0.5,0.6,0.8,0.8c0.3,0.2,0.4,0.7,0.4,1.4c-1.2,0-1.5,0.5-0.9,1.6c0.6,1,0.9,2.2,0.9,3.6c0.3,0.4,0.6,1,1,1.6&#10;&#9;c0.8,1.2,1.2,2.3,1.2,3.3c0,1.2,0.1,1.9,0.3,2.1c0.2,0.2,0.9,0.3,2,0.3v5.1c0,1.3-0.1,2.5-0.3,3.6c-0.2,1-0.9,1.6-2,1.6h-4.5h6.8&#10;&#9;h4.3h2.1c1.2,0,2.3-0.3,3.4-0.9c1.1-0.6,2.2-0.3,3.4,0.9h2.1h4.5c2.2,0,4.3-0.1,6.3-0.3c2-0.2,3.6-0.9,4.8-2.1h6.6l-2.3-0.9&#10;&#9;c-0.7-0.1-1.2-0.2-1.6-0.2s-0.6,0.4-0.6,1.1c-1,0-2-0.1-3-0.3c-1-0.2-1.5-1-1.5-2.3c-1,0-1.6-0.1-1.8-0.3c-0.1-0.2-0.2-0.9-0.2-2.1&#10;&#9;v-2.7c-1.2,0-1.8-0.1-2-0.3c-0.2-0.2-0.3-0.9-0.3-2.1v-2.7c-0.4,0-0.8-0.1-1.2-0.2c-0.7-0.3-1-1-1-2c0-1.3-0.4-3.1-1.2-5.2&#10;&#9;c-0.8-2.2-1.2-3.8-1.2-5H138v-5.1c0-1.3-0.4-3-1.2-5.1c-0.8-2.1-1.2-3.8-1.2-5.1c-1,0-1.7-0.5-1.8-1.4c-0.2-1-0.3-2.1-0.3-3.5&#10;&#9;c-0.1-0.3-0.3-0.7-0.4-1.1c-0.3-0.3-0.5-0.6-0.7-0.9c-0.2-0.3-0.6-0.4-1.3-0.4v-2.7v-2.5c0-1.2-0.4-2.4-1.2-3.6&#10;&#9;C129.6,154,129.3,153.5,129,153z M62.7,186c-1.2,0-1.8,0.1-2,0.3c-0.2,0.2-0.3,0.9-0.3,2.1c-1,1.3-2.1,2.6-3.3,3.9&#10;&#9;c-1.2,1.3-2.3,2.6-3.3,3.9c1,0,2-0.6,3-1.7c1-1.1,1.5-2.3,1.5-3.5c0.5,0,0.9-0.3,1.3-0.8c0.3-0.5,0.6-1,0.9-1.4&#10;&#9;c0.3-0.4,0.6-0.8,0.9-1c0.3-0.2,0.8,0,1.5,0.6c0-1.2,0.4-2,1.1-2.5c0.7-0.4,1.1-1.3,1.1-2.7c-1,0-1.7,0.4-1.9,1.3&#10;&#9;C62.8,185.1,62.7,185.5,62.7,186z M58.2,196.2l-1.4,1.6c-0.4,0.4-0.9,0.9-1.5,1.4c-0.6,0.5-1.1,1.2-1.7,1.9c0.5-0.7,1.1-1.4,1.7-1.9&#10;&#9;c0.6-0.5,1.1-1,1.5-1.4L58.2,196.2l2.1-2.7c0,0.4-0.1,0.9-0.2,1.3C59.9,195.8,59.3,196.2,58.2,196.2z M58.2,170.6&#10;&#9;c1,0,1.7-0.1,1.8-0.2c0.2-0.1,0.3-0.8,0.3-2c0,1.2-0.1,1.9-0.3,2C59.9,170.5,59.3,170.6,58.2,170.6z M60.4,229c1.2,0,1.8-0.1,2-0.2&#10;&#9;c0.2-0.1,0.3-0.8,0.3-2c-1.2,0-1.9,0.4-2.1,1.1C60.3,228.3,60.2,228.7,60.4,229z M62.7,155.5c0.3,0,0.6-0.1,1-0.2&#10;&#9;c0.8-0.3,1.2-1,1.2-2.2c-1,0-1.7,0.4-1.9,1.3C62.8,154.8,62.7,155.2,62.7,155.5z M64.8,163.3c0-0.4,0.1-0.9,0.2-1.3&#10;&#9;c0.3-0.9,0.9-1.3,1.9-1.3c1.2-1.2,2.3-2.5,3.3-3.8c1-1.3,2.1-2.6,3.3-3.8c-2.2,1.2-4,2.6-5.3,4.1C67,158.7,65.9,160.7,64.8,163.3z&#10;&#9; M66.8,171.9c0.1,0.4,0.2,0.9,0.2,1.3c0-1,0.4-2.2,1.2-3.3c0.4-0.6,0.8-1.1,1.2-1.6c-1.2,0-1.9,0.4-2.3,1.1&#10;&#9;c-0.4,0.7-1.1,1.1-2.1,1.1C65.9,170.6,66.5,171.1,66.8,171.9z M64.8,178.2c1,0,1.7-0.5,1.8-1.6c0.2-1,0.3-2.2,0.3-3.3&#10;&#9;c0,1.2-0.4,2-1.1,2.5C65.2,176.2,64.8,177,64.8,178.2z M67,140.1v2.7l2.3-2.7H67z M69.3,135.2c0-0.3,0.1-0.7,0.2-1.1&#10;&#9;c0.3-0.9,0.8-1.3,1.8-1.3h-1.9V135.2z M69.3,224.1h1.9c-0.1-0.3-0.1-0.7,0.2-1.1c0.3-0.9,1-1.3,2.1-1.3c-1.2,0-2.2,0.1-3,0.3&#10;&#9;C69.7,222.2,69.3,222.9,69.3,224.1z M84.7,114.9c-1,1.2-2.6,2.9-4.7,5c-2.1,2.2-4.2,3.8-6.4,5v2.7h2.1c0-1.3,0.1-2.1,0.3-2.3&#10;&#9;c0.2-0.2,0.9-0.3,2-0.3v-2.5c1-1.2,2.1-2.3,3.3-3.5c1.2-1.1,2.3-1.7,3.3-1.7V114.9z M106.8,168.4c0,1.2-0.8,1.9-2.5,2&#10;&#9;c-1.7,0.1-3,0.2-4.1,0.2h-2.3h-6.4h-6.8h-2.1c-1.2,0-2.3,0.1-3.4,0.3c-1.1,0.2-2.2,1-3.4,2.3c-0.5,0-0.8-0.3-1-0.8&#10;&#9;c-0.1-0.5-0.2-1.2-0.2-2c0-0.8,0-1.6-0.1-2.5c-0.1-0.8-0.4-1.6-0.9-2.3h2.1v-2.5c0-1.3,0.4-2.6,1.2-3.9c0.8-1.3,1.2-2.6,1.2-3.9&#10;&#9;c0-0.4,0.1-1,0.2-1.6c0.3-1.2,0.9-2.4,1.9-3.6c0-1.2,0.4-2,1.2-2.5c0.8-0.4,1.2-1.3,1.2-2.7c0-1.2,0.1-2.4,0.3-3.7&#10;&#9;c0.2-1.3,0.8-2.5,1.8-3.7v-2.7c0-1.2,0.4-2.5,1.2-3.8c0.8-1.3,1.2-2.6,1.2-3.8v-2.7c1,0,1.7-0.5,1.8-1.6c0.2-1,0.3-2.2,0.3-3.3v-2.7&#10;&#9;c1.2,0,2.2,0.1,3.1,0.3c0.9,0.2,1.4,1,1.4,2.3c0,1.2,0.1,2.3,0.3,3.3c0.2,1,0.9,1.6,2,1.6v7.8c1,1.2,1.6,2.4,1.8,3.7&#10;&#9;c0.1,1.3,0.2,2.5,0.2,3.7c0,1.3,0.4,2.6,1.2,3.9c0.8,1.3,1.2,2.6,1.2,3.9c1,1.2,1.7,2,1.8,2.5c0.2,0.4,0.3,1.3,0.3,2.7&#10;&#9;c1.2,1.2,1.8,2.5,2,3.8c0.2,1.3,0.3,2.6,0.3,3.8c0,1.3,0.4,2.6,1.1,3.9C106.5,165.7,106.8,167,106.8,168.4z M78.1,127.6&#10;&#9;c-1.2,1.2-1.9,2-2.3,2.5c-0.4,0.4-1.1,1.3-2.1,2.7c2.2-1.3,3.6-2.6,4.2-3.9c0.6-1.3,1.4-2.6,2.4-3.9c-1,0-1.7,0.4-1.9,1.3&#10;&#9;C78.1,126.7,78.1,127.2,78.1,127.6z M73.6,186c1-1.3,1.8-2.5,2.1-3.6c0.4-1,1.2-1.6,2.3-1.6h-2.3c-1,0-1.7,0.5-1.8,1.6&#10;&#9;C73.7,183.5,73.6,184.6,73.6,186z M73.6,188.4c1,0,1.3-0.3,0.8-0.9C73.8,186.9,73.6,187.2,73.6,188.4z M75.7,112.2V110l6.8-7.8&#10;&#9;c-2.2,1.3-3.9,2.7-5.1,4.1C76.3,107.8,75.7,109.7,75.7,112.2z M75.7,137.9c0,0.9,0.4,1.2,1.2,0.9c0.4-0.1,0.8-0.4,1.2-0.9H75.7z&#10;&#9; M80.2,183.3c-1,1.3-1.8,2.2-2.1,2.7c-0.4,0.4-1.2,1.3-2.3,2.5c0.5,0,1.2,0.1,2,0.3c0.8,0.2,1.6,0.4,2.2,0.7&#10;&#9;c0.6,0.2,1.2,0.3,1.8,0.2c0.5-0.1,0.8-0.5,0.8-1.2h-4.5l2.1-2.5V183.3z M82.5,165.7c0-1.2-0.1-2.5-0.3-3.8c-0.2-1.3-0.9-2.6-2-3.8&#10;&#9;c0,1.2-0.4,2.5-1.1,3.8c-0.7,1.3-1.1,2.6-1.1,3.8H82.5z M80.2,92c0.3-0.3,0.5-0.7,0.8-1.1c0.1-0.3,0.2-0.6,0.2-0.9&#10;&#9;c0-0.3-0.3-0.4-1-0.4V92z M80.2,114.9v2.5c0-1.2,0.4-2,1.2-2.5s1.2-1.3,1.2-2.7L80.2,114.9z M80.2,124.9h2.3v-2.5l-0.4,1.3&#10;&#9;C81.8,124.6,81.1,124.9,80.2,124.9z M82.5,99.8c1-1.3,2-2.2,3-2.7c1-0.4,1.5-1.3,1.5-2.5c-1.2,0-2.2,0.5-3.1,1.6&#10;&#9;C83,97.3,82.5,98.4,82.5,99.8z M82.5,155.5h2.1H82.5V153V155.5z M89.1,99.8c0,0.4-0.1,0.9-0.2,1.3c-0.3,0.7-0.9,1.1-1.9,1.1l2.1,2.7&#10;&#9;c-1,0-1.8,0.5-2.1,1.6c-0.4,1-1.2,2.2-2.3,3.6H87l2.1-2.7c0-1.2,0.1-2.5,0.3-3.8c0.2-1.3,0.9-2.6,2-3.8H89.1z M87,142.8&#10;&#9;c1-1.3,2.1-3,3.3-5.1c1.2-2.1,2.3-3.7,3.3-4.9h-2.1c0,1.2-0.5,2.5-1.5,4C89,138.2,88,140.2,87,142.8z M87,163.3&#10;&#9;c0-0.4,0.1-0.9,0.2-1.3c0.3-0.9,0.9-1.3,1.9-1.3c-1,0-1.7,0.1-1.8,0.3C87.1,161.1,87,161.9,87,163.3z M87,165.7c0,1.3,0.1,2,0.3,2&#10;&#9;c0.2,0,0.8-0.7,1.8-2H87z M89.1,188.4V186c-0.4,0-0.7,0.1-0.8,0.2c-0.1,0.1-0.2,0.4-0.2,0.8C88.2,187.4,88.5,187.8,89.1,188.4z&#10;&#9; M91.5,92l-0.4,1.3c-0.3,0.3-0.5,0.6-0.7,0.9c-0.2,0.3-0.6,0.4-1.3,0.4c1.2,0,1.8,0.1,2,0.3c0.2,0.2,0.3,0.9,0.3,2.1l-2.3,2.7&#10;&#9;c0.6,0,1.1-0.1,1.3-0.4c0.2-0.3,0.4-0.6,0.7-0.9l0.4-1.3v-2.5c0-1.3,0.1-2.2,0.3-2.7c0.2-0.4,0.8-1.3,1.8-2.5h-2.1V92z M96,74.4&#10;&#9;c-0.4,0.4-0.8,0.9-1.4,1.3c-0.9,0.7-1.9,1.1-3.1,1.1c0,0.4,0.1,0.9,0.2,1.3c0.3,0.9,0.9,1.3,1.9,1.3h-2.1c0.9,1,1.6,1.3,1.9,0.9&#10;&#9;c0.1-0.1,0.2-0.4,0.2-0.9H96V74.4z M91.5,168.4c1,0,1.7-0.1,1.8-0.3c0.2-0.2,0.3-1,0.3-2.3l2.3-2.5c-1.2,0-1.9,0.5-2.3,1.6&#10;&#9;C93.2,165.9,92.5,167,91.5,168.4z M93.6,183.3c1.2,0,1.9-0.4,2.2-1.2c0.3-0.8,1-1.2,2-1.2c-1,0-1.7,0.1-2,0.3&#10;&#9;C95.5,181.4,94.8,182.1,93.6,183.3z M93.6,186v2.5H96c0-1.2,0.3-2,1-2.5c0.6-0.4,1-1.3,1-2.7c0,1.3-0.4,2.1-1.3,2.3&#10;&#9;C95.8,185.9,94.8,186,93.6,186z M97.9,150.3v-2.5l-1.9,2.5H97.9z M96,158.1c0.9,0,1.5-0.4,1.8-1.3c0.1-0.4,0.2-0.9,0.2-1.3V153&#10;&#9;c0,1.2-0.3,2-1,2.5C96.3,155.9,96,156.8,96,158.1z M102.4,165.7c-0.5,0-0.8-0.1-1-0.3c-0.1-0.2-0.2-0.5-0.2-0.9c0-0.4,0-0.7-0.1-0.9&#10;&#9;c-0.1-0.2-0.4-0.3-0.9-0.3l-2.3,2.5H102.4z M100.2,203.6c-1.2,0-1.5,0.4-1,1.3c0.1,0.4,0.5,0.9,1,1.3l2.1-2.7H100.2z M102.4,211.4&#10;&#9;v-2.7l2.3-2.5c0,0.6-0.2,1.1-0.7,1.4c-0.5,0.4-0.9,0.7-1.3,1c-0.4,0.3-0.7,0.7-0.9,1.1C101.7,210.3,101.9,210.8,102.4,211.4z&#10;&#9; M102.4,216.5c-0.1,0.4-0.1,0.9,0.2,1.3c0.3,0.7,1,1.1,2.1,1.1v-2.5l-0.4-1.3c-0.3-0.3-0.5-0.6-0.7-0.9c-0.2-0.3-0.6-0.4-1.3-0.4&#10;&#9;V216.5z M106.8,186c1.2,0,1.8,0.1,2,0.3s0.3,0.9,0.3,2.1c0,0.7-0.2,1.4-0.7,2c-0.5,0.6-1,1.2-1.6,1.9s-1.1,1.3-1.6,2&#10;&#9;c-0.5,0.7-0.7,1.3-0.7,1.9c1-1.3,1.8-2.5,2.1-3.6c0.4-1,1.2-1.6,2.3-1.6c0.5,0.7,0.8,1.4,0.9,2c0.1,0.6,0,1.1-0.1,1.6&#10;&#9;c-0.1,0.6-0.4,1.1-0.8,1.6l2.1-2.7c0-1.2-0.4-2.5-1.1-3.8c-0.7-1.3-1.1-2.6-1.1-3.8l-0.4-0.9c-0.3-0.1-0.5-0.2-0.7-0.2&#10;&#9;S107.5,185.2,106.8,186z M109.2,206.2h-2.3c1.2,0,2.3-0.6,3.4-1.7c1.1-1.1,2.2-2.3,3.2-3.5c0-1.3-0.1-2.2-0.3-2.6&#10;&#9;c-0.2-0.4-0.8-1.1-1.8-2.3c0,2.5-0.4,4.5-1.1,5.9C109.5,203.5,109.2,204.9,109.2,206.2z M106.8,221.6l2.3-2.7h-2.3V221.6z&#10;&#9; M106.8,226.7c0,0.9,0.4,1.2,1.2,0.9c0.4-0.1,0.8-0.4,1.2-0.9h2.1H106.8z M109.2,208.7h2.1v-2.5c-0.4,0-0.8,0.1-1.2,0.2&#10;&#9;C109.5,206.8,109.2,207.5,109.2,208.7z M111.3,218.9c0,1.3,0.1,2.1,0.3,2.3c0.2,0.2,0.8,0.3,1.8,0.3c-1,0-1.7-0.4-1.9-1.3&#10;&#9;C111.4,219.8,111.3,219.4,111.3,218.9z M117.9,218.9c-0.4,0.4-0.8,1-1.2,1.6c-0.7,1-1,2.2-1,3.6c1-1.2,2-2,3-2.5&#10;&#9;c1-0.4,1.5-1.3,1.5-2.7H117.9z M131.2,218.9c0,1.3-0.4,2.2-1.2,2.5c-0.4,0.3-0.7,0.4-1,0.2h4.5c0-1.3,0.1-2.1,0.3-2.3&#10;&#9;c0.2-0.2,0.8-0.3,1.8-0.3H131.2z M135.6,221.6c1.2,0,2.2-0.1,3.1-0.3c0.9-0.2,1.4-1,1.4-2.3c-1,0-1.8,0.4-2.1,1.3&#10;&#9;C137.6,221.2,136.8,221.6,135.6,221.6z M140.1,226.7v2.2c0-1,0.4-1.7,1.2-2c0.4-0.1,0.8-0.2,1.2-0.2H140.1z M146.9,218.9h-2.3&#10;&#9;c0,1.3-0.4,2.2-1.1,2.7c-0.7,0.4-1.1,1.3-1.1,2.5c1-1.2,2.2-2.5,3.5-3.8c1.3-1.3,3-2.6,5.3-3.8c-1.2,0-2.2,0.1-3,0.3&#10;&#9;C147.3,217.1,146.9,217.8,146.9,218.9z M151.2,218.9c1,0,1.7-0.1,1.8-0.3s0.3-0.9,0.3-2.1c0,0.7,0.1,1.1,0.4,1.1&#10;&#9;c0.3,0,0.5-0.1,0.8-0.2c0.4-0.1,0.8-0.4,1.2-0.9c-1.2,0-1.9,0.4-2.3,1.2C152.9,218.5,152.2,218.9,151.2,218.9z" transform="matrix(4.347327235156812, 0, 0, 4.347327235156812, 505.3033026669939, -220.00450262383055)"/>








<path d="M406.1,446.3h2.1c0-1.3,0.1-2.5,0.3-3.6c0.2-1,0.9-1.6,2.2-1.6c0-1,0.4-1.9,1.2-2.5c0.4-0.3,0.8-0.4,1.2-0.4&#10;&#9;c0-1.3,0.5-2.2,1.5-2.7c1-0.4,2-1.3,3.2-2.7c1.3,0,2.1-0.1,2.5-0.3c0.4-0.2,1.2-1,2.3-2.3h4.7h2.5v-5.6v-16v-2.9v-5.3v-10.9v-8v-8&#10;&#9;v-2.9c1-1.3,1.3-2.7,0.8-4c-0.5-1.3-0.8-2.7-0.8-4v-10.7c0-2.8-0.1-5.6-0.3-8.2c-0.2-2.7-0.9-5.4-2.2-8.2v-7.8&#10;&#9;c0-1.5-0.1-2.9-0.3-4.2c-0.2-1.3-0.9-2.7-2-4v-2.7c-1.2-1.5-2.8-2.3-4.8-2.6c-2-0.2-3.6-0.3-4.8-0.3l-2.3-2.7c0-1.3,0.4-2.2,1.2-2.7&#10;&#9;c0.8-0.4,1.2-1.3,1.2-2.7l2.3-2.9c0.4,0,0.8-0.1,1.2-0.2c0.9-0.3,1.4-1,1.4-2.2h2.3c1.2,0,1.9-0.6,2.3-1.7c0.4-1.1,1.2-2.3,2.3-3.7&#10;&#9;h2.5v-2.9c0.3,0.1,0.6,0.1,1-0.2c0.8-0.3,1.2-1.1,1.2-2.5c1.2,1.3,2.8,2,4.8,2c2,0,3.6-0.7,4.8-2c0,1.3,0.5,2.1,1.5,2.3&#10;&#9;c1,0.2,2,0.3,3.2,0.3v-2.7c1.2,0,2.8,0.3,4.8,1c2,0.7,3.6,0.3,4.8-1h2.1h14.4c3.6-1.3,7.1-1.7,10.3-1c3.2,0.7,6.1,1,8.6,1&#10;&#9;c1.2,1.3,1.8,2.2,2,2.7c0.2,0.4,0.3,1.4,0.3,2.9v2.7c-1.2,1.3-1.9,2.2-2.3,2.7c-0.4,0.4-1.2,1.3-2.3,2.5c-1.3,0-2.5,0.5-3.7,1.4&#10;&#9;c-1.2,1-2.3,1.4-3.5,1.4l-2.1,2.7c0,1.3,0.4,2.7,1.1,4c0.7,1.3,1.1,2.7,1.1,4.2v2.7v5.3v2.9v2.5v8.2c-0.5,1.3-0.8,2.5-0.9,3.6&#10;&#9;c-0.1,1,0,2.1,0.1,3.1c0.1,1,0.3,2.1,0.5,3.2c0.2,1.1,0.3,2.3,0.3,3.7v18.7c0,1.5,0.1,2.3,0.3,2.6c0.2,0.2,0.9,0.3,2,0.3&#10;&#9;c-1.2,1.3-1.8,3.1-2,5.3s-0.3,4.1-0.3,5.6c0,1.2,0.4,1.9,1.2,2.2c0.4,0.1,0.8,0.2,1.2,0.2v2.7v5.6v8v2.7V422h-2.3v13.6&#10;&#9;c-1,2.8-2.2,5.1-3.4,6.8c-1.2,1.7-2.4,3.9-3.6,6.6v2.9l-4.7,5.3v2.7c-1.3,1.3-2.5,2.7-3.7,4.1c-1.2,1.4-2.3,2.8-3.5,4.1h-2.3v2.7&#10;&#9;c-1.2,0-2.3,0.4-3.3,1.3c-0.5,0.4-1,0.8-1.4,1.1c-1.2,0-1.9,0.5-2.3,1.4c-0.4,1-1.2,1.4-2.3,1.4v2.7c0,1.3-0.9,2.2-2.7,2.7&#10;&#9;c-1.8,0.4-3.3,1.3-4.5,2.7c-0.4,0.1-0.8,0.1-1.2-0.2c-0.8-0.3-1.2-1.1-1.2-2.5c-2.5,1.3-4.5,2.7-6,4.1c-1.6,1.4-3.4,2.8-5.6,4.1H425&#10;&#9;c-1.2,0-2.3,0.4-3.3,1.3c-0.5,0.4-1,0.9-1.4,1.3h-2.5h-2.3l-1.6-1.3c-0.5-0.3-1-0.6-1.5-0.9c-0.5-0.3-1-0.4-1.7-0.4h-2.5&#10;&#9;c-1,0-2.1-0.4-3.3-1.3c-1.2-0.9-2.3-1.3-3.5-1.3c0-1.5-0.4-2.5-1.3-2.9c-0.8-0.4-1.3-1.3-1.3-2.7s-0.4-2.2-1.2-2.7&#10;&#9;c-0.8-0.4-1.2-1.3-1.2-2.7s-0.4-2.6-1.2-3.8c-0.4-0.6-0.8-1.1-1.2-1.6c0-1.3,0.1-2.7,0.3-4c0.2-1.3,0.9-2.7,2-4.2h-2.3&#10;&#9;c2.3-2.7,4.2-5.2,5.6-7.7c1.4-2.5,2.7-4.4,3.9-5.9h2.3V446.3z M401.4,476.1c1.2,0,1.8-0.1,2-0.3s0.3-1.1,0.3-2.6L401.4,476.1z&#10;&#9; M403.8,465.5v2.7c1.2-1.3,2.3-2.7,3.4-4.1c1.1-1.4,2.3-2.8,3.6-4.1c-0.7,0-1.3,0.3-1.8,0.9c-0.6,0.6-1.2,1.2-1.8,1.9&#10;&#9;c-0.6,0.7-1.2,1.3-1.8,1.9C404.8,465.2,404.3,465.5,403.8,465.5z M403.8,478.8c0.9,1.2,1.6,1.6,1.9,1.1c0.1-0.1,0.3-0.5,0.4-1.1&#10;&#9;H403.8z M410.8,470.8c-0.5,0.4-1,1-1.6,1.6c-0.5,0.4-1,1-1.6,1.7c-0.5,0.7-1,1.4-1.6,2.1c2.3-1.5,4.2-2.9,5.5-4.1&#10;&#9;c1.4-1.3,2.6-2.6,3.8-3.9v-2.7L410.8,470.8z M413.1,462.6c-1.2,0-1.9,0.5-2.1,1.6c-0.3,0.4-0.3,0.9-0.2,1.3c-1.3,0-2,0.1-2.2,0.3&#10;&#9;c-0.2,0.2-0.3,1-0.3,2.3c0.4,0.1,0.8,0.1,1.2-0.2c0.9-0.3,1.4-1.1,1.4-2.5L413.1,462.6z M408.2,484.2c0-0.7,0.1-1.2,0.4-1.4&#10;&#9;c0.3-0.2,0.5-0.5,0.8-0.8c0.4-0.1,0.8-0.3,1.4-0.4c-1.3,0-2,0.1-2.2,0.3C408.3,482,408.2,482.8,408.2,484.2z M417.8,468.1&#10;&#9;c0,1.3-0.1,2.1-0.3,2.3c-0.2,0.2-0.9,0.3-2,0.3c-1.2,1.2-2.2,2.5-3.2,3.9c-1,1.4-1.5,2.8-1.5,4.1c1.2-1.3,2.7-2.7,4.7-4.1&#10;&#9;c1.9-1.4,3.6-2.7,4.9-3.9c0-0.4-0.1-0.9-0.4-1.3C419.4,468.6,418.7,468.1,417.8,468.1z M483.9,292.2h-7h-4.7&#10;&#9;c-0.7,0.7-1.1,1.2-1.5,1.2c-0.3,0.1-0.6,0-0.9-0.1c-0.3-0.1-0.6-0.4-1-0.7c-0.4-0.3-0.9-0.4-1.6-0.4H465c-0.5,0-1,0.1-1.6,0.4&#10;&#9;c-1,0.4-2.1,1.3-3.1,2.5c-0.7-0.7-1.3-1.1-1.8-1.2c-0.6-0.1-1.2,0-1.8,0.1c-0.6,0.1-1.2,0.4-1.8,0.7c-0.6,0.3-1.1,0.4-1.7,0.4h-4.9&#10;&#9;h-11.9c0,1.3-0.1,2.1-0.3,2.3c-0.2,0.2-0.9,0.3-2,0.3c1.2,0,1.9,0.4,2.3,1.3c0.4,0.9,1.2,1.3,2.5,1.3c1.2-1.3,2.7-1.7,4.7-1&#10;&#9;c1.9,0.7,3.5,1,4.7,1v2.5v2.9v5.3V322v8v5.3v2.9v8v16.3v5.3c0.6,0.7,1,1.4,1.1,2.1c0.1,0.7,0.1,1.3,0.1,2c0,0.7,0.1,1.4,0.2,2.1&#10;&#9;c0.1,0.7,0.5,1.4,1.2,2c-1.3,1.3-1.6,2.7-1,4c0.6,1.3,1,2.7,1,4.2c0,1.2-0.3,2.5-1,3.8c-0.7,1.3-0.3,2.7,1,4v5.6v13.6&#10;&#9;c-0.7,0-1,0.1-1.1,0.4c-0.1,0.3,0,0.7,0.1,1.2c0.1,0.5,0.3,1.1,0.6,1.7c0.3,0.6,0.4,1.2,0.4,1.8v2.9v5.3v8.2v10.7v2.7&#10;&#9;c-0.7,0-1,0.3-1.1,0.9c-0.1,0.6,0,1.3,0.1,2.2c0.1,0.9,0.3,1.8,0.6,2.8c0.3,1,0.4,1.7,0.4,2.3c-0.7,0-1.1,0.1-1.4,0.4&#10;&#9;c-0.3,0.3-0.5,0.6-0.8,0.9c-0.3,0.4-0.4,0.9-0.4,1.3v5.3c-1.2,0.7-2.1,1.4-2.8,2.1c-0.7,0.7-1.4,1.3-1.9,1.8&#10;&#9;c-0.6,0.5-1.2,0.9-1.8,1.2c-0.7,0.3-1.6,0.4-2.7,0.4c-0.5,0.1-1,0.1-1.6-0.2c-1-0.2-2.1-1-3.3-2.5v-2.9c-1.2-1.3-1.8-3.2-1.8-5.7&#10;&#9;c0-2.5,0.6-5.1,1.8-7.9H432c1.2-1.3,1.8-2.2,2-2.7c0.2-0.4,0.3-1.3,0.3-2.7c0-1.2-0.4-2-1.2-2.5c-0.8-0.4-1.2-1.4-1.2-2.9&#10;&#9;c-1,0-1.8-0.4-2.1-1.3c-0.4-0.9-1.2-1.3-2.5-1.3H425h-2.3c-0.7,0-1.2,0.1-1.8,0.4c-0.5,0.3-1,0.6-1.6,0.9c-0.5,0.4-1,0.9-1.6,1.3&#10;&#9;c-0.7,0.7-0.5,1.4,0.4,2c0.9,0.6,2,1.1,3.2,1.6c1.2,0.4,2.3,0.8,3.1,1c0.8,0.2,1,0.3,0.5,0.3c0,0.7-0.5,1.3-1.5,1.7&#10;&#9;c-1,0.4-2.1,0.8-3.3,1.2c-1.2,0.4-2.3,0.9-3.3,1.3c-1,0.4-1.5,1-1.5,1.6l2.3,2.9v2.7v2.7c0,1.3,0.1,2.2,0.3,2.7&#10;&#9;c0.2,0.4,0.9,1.3,2.2,2.7c1.2,1.5,2.4,3.2,3.8,5.2c1.4,2,3.3,3,5.7,3c1,1.2,2.1,1.5,3.3,0.9c1.2-0.6,2.3-0.9,3.5-0.9h4.9&#10;&#9;c2.3,0,4.6-0.1,6.8-0.3c2.2-0.2,3.9-1,5.1-2.3c2.2-1.3,4-2.6,5.4-3.8c1.4-1.2,2.7-1.8,3.9-1.8v-5.3c1.2,0,2.3-0.6,3.5-1.7&#10;&#9;c1.2-1.1,2.4-2.3,3.7-3.7v-5.6c1.2-1.3,1.9-2.6,2.3-3.9c0.4-1.3,1.2-2.6,2.3-4.1c0-1.3,0.1-2.6,0.3-3.7c0.2-1.1,0.9-1.7,2-1.7v-5.6&#10;&#9;c0-1.3,0.1-2.8,0.3-4.3c0.2-1.6,0.9-3.7,2.2-6.6c-0.5,0-1-0.1-1.4-0.2c-0.8-0.3-1.2-1-1.2-2.2c1.3-1.3,2-2.8,2.2-4.3&#10;&#9;c0.2-1.6,0.3-3.7,0.3-6.6v-5.3v-2.7c0-0.7-0.2-1.3-0.5-1.6c-0.3-0.3-0.6-0.6-0.9-0.9c-0.4-0.3-0.8-0.4-1.2-0.4v-5.3&#10;&#9;c0-1.9,0.1-3.7,0.4-5.5c0.3-1.7,0.5-3.3,0.6-4.9c0.1-1.6,0.2-3,0.1-4.5c-0.1-1.4-0.4-2.8-1.1-4.1v-2.7v-5.6v-2.5v-5.3&#10;&#9;c0-0.7-0.1-1.3-0.3-1.8c-0.2-0.4-0.4-0.8-0.6-1.1c-0.2-0.3-0.3-0.6-0.2-1c0.1-0.4,0.4-0.9,1.1-1.7c-1.2,0-1.5-0.6-0.9-1.7&#10;&#9;s0.9-2.3,0.9-3.7c-0.5-0.4-0.8-0.9-1-1.3c-0.5-0.9-0.2-1.3,1-1.3v-5.6V330v-5.3c0-2.7-0.3-4.8-0.9-6.3s-0.3-3.1,0.9-4.6&#10;&#9;c-1.2-1.3-1.8-2.7-2-4c-0.2-1.3-0.3-2.7-0.3-4c1.2-1.5,1.9-2.7,2.3-3.8c0.4-1,1.2-1.6,2.5-1.6c0.5-0.6,1.2-1,1.9-1.1&#10;&#9;c0.8-0.1,1.6-0.2,2.5-0.2c0.9,0,1.8,0,2.6-0.1c0.8-0.1,1.6-0.5,2.2-1.2c0-1.3-0.4-2.2-1.3-2.7c-0.8-0.4-1.3-1.4-1.3-2.9H483.9z&#10;&#9; M417.8,311.1c0.9,0,1.6-0.4,2.1-1.3c0.3-0.4,0.4-0.9,0.4-1.3c-1.3,0-2,0.1-2.2,0.3C417.9,309,417.8,309.8,417.8,311.1z&#10;&#9; M420.3,473.2c0.4,0,0.8-0.1,1.2-0.2c0.8-0.3,1.2-1,1.2-2.2h-2.3V473.2z M422.6,484.2c-0.4,0-0.8,0.1-1.2,0.4&#10;&#9;c-0.8,0.6-1.2,1.4-1.2,2.5h2.3c0-1,0.4-1.9,1.2-2.5c0.4-0.3,0.8-0.4,1.2-0.4H422.6z M425,473.2c0,1.5-0.4,2.5-1.2,2.9&#10;&#9;c-0.8,0.4-1.2,1.3-1.2,2.7c0-1.3,0.4-2.2,1.2-2.7C424.6,475.7,425,474.7,425,473.2z M429.8,476.1c-0.5,0.1-1,0.3-1.4,0.4&#10;&#9;c-0.3,0.3-0.5,0.6-0.8,0.8c-0.3,0.2-0.4,0.7-0.4,1.4c0.9,0,1.6-0.4,2.1-1.3C429.7,477,429.8,476.6,429.8,476.1&#10;&#9;c1,1.3,1.3,2.2,0.8,2.7c-0.5,0.4-0.8,1.3-0.8,2.7c1-1.3,2.1-2.2,3.3-2.7c1.2-0.4,2.3-1.3,3.5-2.7H429.8z M432,308.4h-2.1v2.7&#10;&#9;c1,0,1.8-0.4,2.1-1.3c0.4-0.9,1.2-1.3,2.3-1.3c0-0.6,0.2-1.1,0.7-1.6c0.5-0.4,0.9-0.8,1.4-1.1c0.5-0.3,0.8-0.7,1-1.1&#10;&#9;c0.2-0.4,0-1-0.7-1.8c-0.7,0-1.1,0.3-1.5,0.9c-0.3,0.6-0.6,1.2-0.9,1.9c-0.3,0.7-0.6,1.3-1,1.9C432.9,308.1,432.5,308.4,432,308.4z&#10;&#9; M429.8,319.3v2.7c0-1.3,0.4-2.2,1.1-2.7c0.7-0.4,1.1-1.3,1.1-2.7c-1,0-1.7,0.1-1.8,0.3C429.9,317.2,429.8,318,429.8,319.3z&#10;&#9; M429.8,322v2.7c0.3,0.1,0.6,0.1,1-0.2c0.8-0.3,1.2-1.1,1.2-2.5H429.8z M432,327.6c-0.4,0-0.8,0.1-1.2,0.2c-0.7,0.3-1,1-1,2.2h2.1&#10;&#9;c-0.1-0.4-0.1-1,0.2-1.6c0.1-0.9,0.8-2.2,2.1-3.8c-0.1,0.6-0.3,1.1-0.4,1.6c-0.3,0.3-0.5,0.6-0.7,0.9&#10;&#9;C433,327.4,432.6,327.6,432,327.6z M434.3,313.8c-1-1-1.8-1.3-2.1-0.9c-0.3,0.3-0.3,0.6-0.2,0.9c1.2,0,1.8-0.3,2-1&#10;&#9;C434.2,312.1,434.3,312.4,434.3,313.8z M432,305.7l2.3-2.9c-1.2,0-1.8,0.1-2,0.3C432.1,303.4,432,304.3,432,305.7z M432,335.4&#10;&#9;l2.3-2.7l-1.2,0.4c-0.3,0.3-0.5,0.6-0.8,0.8C432.1,334.1,432,334.6,432,335.4z M434,345.9c0.2-0.2,0.3-1,0.3-2.3l-1.2,0.4&#10;&#9;c-0.3,0.3-0.5,0.6-0.8,0.8c-0.3,0.2-0.4,0.7-0.4,1.4C433.1,346.3,433.8,346.2,434,345.9z M432,378.8c0,1.3,0.1,2.6,0.3,3.8&#10;&#9;c0.2,1.2,0.9,1.8,2,1.8c0.4-0.6,0.8-1.2,1.2-1.8c0.3-0.6,0.5-1.2,0.8-1.8c0.3-0.6,0.4-1.3,0.4-2H432z M432,432.9&#10;&#9;c0.4,0.1,0.8,0.1,1.2-0.2c0.8-0.3,1.2-1.1,1.2-2.5L432,432.9z M434.3,351.9V349c-1.2,0-1.8,0.5-1.8,1.4&#10;&#9;C432.6,351.4,433.1,351.9,434.3,351.9z M434.3,389.5c-0.5,0.4-0.8,0.9-1,1.3c-0.5,0.9-0.2,1.3,1,1.3c0-1.3,0.4-2.2,1.2-2.7&#10;&#9;s1.2-1.3,1.2-2.7L434.3,389.5z M434.3,373.5c0,1.3-0.3,2.1-0.9,2.3c-0.6,0.2-0.3,0.3,0.9,0.3V373.5z M434.3,395.1&#10;&#9;c0,1.3-0.3,2.1-0.9,2.3c-0.6,0.2-0.3,0.3,0.9,0.3V395.1z M434.3,414v2.5c0,1.5-0.3,2.8-0.9,3.9c-0.6,1.1-0.3,1.7,0.9,1.7l2.3-2.7&#10;&#9;c-1.2,0-1.8-0.1-2-0.3c-0.2-0.2-0.3-1.1-0.3-2.6v-5.1V414z M434.3,370.6c0-1.3,0.1-2.1,0.3-2.3c0.2-0.2,0.9-0.3,2-0.3&#10;&#9;c-1-1-1.8-1.3-2.1-0.9c-0.3,0.3-0.3,0.6-0.2,0.9V370.6z M435.1,361.2c0.1-0.3,0.2-0.6,0.2-1c0-0.4-0.3-0.6-1-0.6v2.9L435.1,361.2z&#10;&#9; M436.6,400.4l-2.3,2.7v2.7c0-1.3,0.5-2.6,1.5-3.7c1-1.1,2.1-1.7,3.4-1.7H436.6z M437,309.8c0.3-0.3,0.5-0.6,0.8-0.9&#10;&#9;c0.3-0.3,0.7-0.4,1.4-0.4v-2.7c0,1.3-0.4,2.2-1.3,2.7c-0.8,0.4-1.3,1.3-1.3,2.7C436.6,310.6,436.8,310.2,437,309.8z M436.6,319.3&#10;&#9;c2.5-1.3,4-2.6,4.6-3.8c0.6-1.2,1.5-1.8,2.6-1.8v-2.7c-1.2,1.3-2.3,2.7-3.5,4.1C439.2,316.6,437.9,318,436.6,319.3z M436.6,327.6&#10;&#9;c1.3,0,2.5-1,3.7-3.1c1.2-2.1,2.3-3.8,3.5-5.1v-2.7c-1.2,2.7-2.7,4.8-4.5,6.3C437.5,324.6,436.6,326.1,436.6,327.6z M439.2,330&#10;&#9;c0,0.4-0.1,0.9-0.4,1.3c-0.5,0.9-1.2,1.3-2.1,1.3c1.3,0,2.4-0.6,3.4-1.7c1-1.1,1.5-2.3,1.5-3.5c1.2,0,1.8-0.1,2-0.3&#10;&#9;c0.2-0.2,0.3-1.1,0.3-2.6c-1.2,0-1.9,0.6-2.3,1.8C441.1,327.6,440.3,328.8,439.2,330z M446.2,395.1h-2.3v2.7c-1.2,1.3-2.2,2.7-3.2,4&#10;&#9;s-1.5,2.7-1.5,4c-1.3,0-2,0.1-2.2,0.3s-0.3,1.1-0.3,2.6l2.5-2.9l4.7-5.3l2.3-2.7V395.1z M436.6,457.2h2.5v-2.7L436.6,457.2z&#10;&#9; M442.4,370.6c1-0.4,1.5-1.3,1.5-2.7v-2.7c-1.2,1.3-1.9,2.7-2.3,4s-1.2,2.7-2.3,4.2C440.3,372,441.4,371,442.4,370.6z M443.8,403.1&#10;&#9;c0,1.3-0.5,2.7-1.5,4.1c-1,1.4-2,2.8-3.2,4.1c1.2-1.3,2.3-2.6,3.5-3.8c1.2-1.2,2.3-1.8,3.5-1.8v-2.7H443.8z M439.2,462.6&#10;&#9;c0.4,0.1,0.8,0.1,1.2-0.2c0.8-0.3,1.2-1.1,1.2-2.5L439.2,462.6z M441.7,377.5c0.3-0.9,1-1.3,2.1-1.3c-1.2,0-1.8,0.1-2,0.3&#10;&#9;c-0.2,0.2-0.3,1-0.3,2.3C441.4,378.4,441.4,377.9,441.7,377.5z M441.5,422c-0.1-0.4-0.1-0.9,0.2-1.3c0.3-0.9,1-1.3,2.1-1.3l-1.2,0.4&#10;&#9;c-0.3,0.3-0.5,0.6-0.8,0.8C441.6,420.8,441.5,421.3,441.5,422z M441.5,338.3h2.3v-2.9L441.5,338.3z M441.5,343.6h2.3v-2.7&#10;&#9;c0,1.3-0.4,2.2-1.2,2.5C442.3,343.7,441.9,343.8,441.5,343.6z M441.5,351.9c0-1.5,0.4-2.5,1.2-2.9c0.8-0.4,1.2-1.3,1.2-2.7&#10;&#9;c-1.2,1.3-1.8,2.2-2,2.7C441.6,349.4,441.5,350.4,441.5,351.9z M441.5,384.4v2.5l2.3-2.5h2.3c0-1.5-0.1-2.5-0.3-2.9&#10;&#9;c-0.2-0.4-0.9-1.3-2-2.7c0,1.3-0.1,2.6-0.3,3.8C443.3,383.8,442.7,384.4,441.5,384.4z M441.5,395.1c0-0.7,0.2-1.3,0.7-1.8&#10;&#9;c0.5-0.4,1-0.8,1.6-1.1c0.6-0.3,1.1-0.6,1.7-1c0.5-0.4,0.8-0.9,0.8-1.7c-1.2,0-2.2,0.6-3.2,1.7C442,392.3,441.5,393.6,441.5,395.1z&#10;&#9; M443.8,424.7c-1.2,0-1.8,0.1-2,0.3c-0.2,0.2-0.3,1-0.3,2.3l4.7-5.3c-1.2,0-1.8,0.1-2,0.3C443.9,422.6,443.8,423.4,443.8,424.7z&#10;&#9; M443.8,376.1h2.3c0-1.3-0.4-2-1.2-2C444.2,374.1,443.8,374.8,443.8,376.1z M443.8,430.3c0.4,0,0.8-0.1,1.2-0.4&#10;&#9;c0.3-0.3,0.5-0.6,0.8-0.9c0.3-0.3,0.4-0.8,0.4-1.6L443.8,430.3z M443.8,454.5h2.3c-0.7,0-1-0.1-1.1-0.4c-0.1-0.3-0.1-0.6-0.1-0.9&#10;&#9;c0-0.3-0.1-0.6-0.2-0.9c-0.1-0.3-0.5-0.4-1-0.4V454.5z" transform="matrix(4.347328107107598, 0, 0, 4.347328107107598, -1480.243092432399, -1198.9993087804005)"/>


















</svg>