<?xml version="1.0" encoding="utf-8"?>
<svg id="master-artboard" viewBox="0 0 1400 980" version="1.1" xmlns="http://www.w3.org/2000/svg" x="0px" y="0px" style="enable-background:new 0 0 1400 980;" width="1400px" height="980px">
<path d="M312.8,94.9v235.4c0,2.8,2.2,5,5,5s5-2.2,5-5V219.4h83.5v54.8c0,2.8,2.2,5,5,5c2.8,0,5-2.2,5-5V155.5L312.8,94.9z&#10;&#9;&#9; M322.8,209.4v-97.1l83.5,48.8v48.2H322.8z" transform="matrix(3.8836410045623784, 0, 0, 3.8836410045623784, -476.29800370335624, -352.5206604003906)"/>








<g transform="matrix(4.3338117599487305, 0, 0, 4.3338117599487305, -1770.282348185778, -2806.417236328125)">
		<path d="M540.3,871.8l-69.1-40.4v-42.6c0-2.8,2.2-5,5-5s5,2.2,5,5v36.9l58.4,34.1l20.2-15.5V657.2c0-2.8,2.2-5,5-5s5,2.2,5,5v192&#10;&#9;&#9;&#9;L540.3,871.8z"/>
	</g>


</svg>