<?xml version="1.0" encoding="utf-8"?>
<svg id="master-artboard" viewBox="0 0 328.5 284.1000061035156" version="1.1" xmlns="http://www.w3.org/2000/svg" x="0px" y="0px" style="enable-background:new 0 0 1400 980;" width="328.5px" height="284.1000061035156px"><defs><linearGradient id="gradient-0" gradientUnits="objectBoundingBox" x1="0.5" y1="0" x2="0.5" y2="1">
                <stop offset="0" style="stop-color: #02b3e4"/>
                <stop offset="1" style="stop-color: #01647f"/>
              </linearGradient><linearGradient id="gradient-1" gradientUnits="objectBoundingBox" x1="0.5" y1="0" x2="0.5" y2="1">
                <stop offset="0" style="stop-color: #02b3e4"/>
                <stop offset="1" style="stop-color: #01647f"/>
              </linearGradient><linearGradient id="gradient-2" gradientUnits="objectBoundingBox" x1="0.5" y1="0" x2="0.5" y2="1">
                <stop offset="0" style="stop-color: #02b3e4"/>
                <stop offset="1" style="stop-color: #01647f"/>
              </linearGradient><linearGradient id="gradient-3" gradientUnits="objectBoundingBox" x1="0.5" y1="0" x2="0.5" y2="1">
                <stop offset="0" style="stop-color: #02b3e4"/>
                <stop offset="1" style="stop-color: #01647f"/>
              </linearGradient><linearGradient id="gradient-4" gradientUnits="objectBoundingBox" x1="0.5" y1="0" x2="0.5" y2="1">
                <stop offset="0" style="stop-color: #02b3e4"/>
                <stop offset="1" style="stop-color: #01647f"/>
              </linearGradient><linearGradient id="gradient-5" gradientUnits="objectBoundingBox" x1="0.5" y1="0" x2="0.5" y2="1">
                <stop offset="0" style="stop-color: #02b3e4"/>
                <stop offset="1" style="stop-color: #01647f"/>
              </linearGradient><linearGradient id="gradient-6" gradientUnits="objectBoundingBox" x1="0.5" y1="0" x2="0.5" y2="1">
                <stop offset="0" style="stop-color: #02b3e4"/>
                <stop offset="1" style="stop-color: #01647f"/>
              </linearGradient><linearGradient id="gradient-7" gradientUnits="objectBoundingBox" x1="0.5" y1="0" x2="0.5" y2="1">
                <stop offset="0" style="stop-color: #02b3e4"/>
                <stop offset="1" style="stop-color: #01647f"/>
              </linearGradient><linearGradient id="gradient-8" gradientUnits="objectBoundingBox" x1="0.5" y1="0" x2="0.5" y2="1">
                <stop offset="0" style="stop-color: #02b3e4"/>
                <stop offset="1" style="stop-color: #01647f"/>
              </linearGradient><linearGradient id="gradient-9" gradientUnits="objectBoundingBox" x1="0.5" y1="0" x2="0.5" y2="1">
                <stop offset="0" style="stop-color: #02b3e4"/>
                <stop offset="1" style="stop-color: #01647f"/>
              </linearGradient><linearGradient id="gradient-10" gradientUnits="objectBoundingBox" x1="0.5" y1="0" x2="0.5" y2="1">
                <stop offset="0" style="stop-color: #02b3e4"/>
                <stop offset="1" style="stop-color: #01647f"/>
              </linearGradient><linearGradient id="gradient-11" gradientUnits="objectBoundingBox" x1="0.5" y1="0" x2="0.5" y2="1">
                <stop offset="0" style="stop-color: #02b3e4"/>
                <stop offset="1" style="stop-color: #01647f"/>
              </linearGradient><linearGradient id="gradient-12" gradientUnits="objectBoundingBox" x1="0.5" y1="0" x2="0.5" y2="1">
                <stop offset="0" style="stop-color: #02b3e4"/>
                <stop offset="1" style="stop-color: #01647f"/>
              </linearGradient><linearGradient id="gradient-13" gradientUnits="objectBoundingBox" x1="0.5" y1="0" x2="0.5" y2="1">
                <stop offset="0" style="stop-color: #02b3e4"/>
                <stop offset="1" style="stop-color: #01647f"/>
              </linearGradient><linearGradient id="gradient-14" gradientUnits="objectBoundingBox" x1="0.5" y1="0" x2="0.5" y2="1">
                <stop offset="0" style="stop-color: #02b3e4"/>
                <stop offset="1" style="stop-color: #01647f"/>
              </linearGradient><linearGradient id="gradient-15" gradientUnits="objectBoundingBox" x1="0.5" y1="0" x2="0.5" y2="1">
                <stop offset="0" style="stop-color: #02b3e4"/>
                <stop offset="1" style="stop-color: #01647f"/>
              </linearGradient><linearGradient id="gradient-16" gradientUnits="objectBoundingBox" x1="0.5" y1="0" x2="0.5" y2="1">
                <stop offset="0" style="stop-color: #02b3e4"/>
                <stop offset="1" style="stop-color: #01647f"/>
              </linearGradient><linearGradient id="gradient-17" gradientUnits="objectBoundingBox" x1="0.5" y1="0" x2="0.5" y2="1">
                <stop offset="0" style="stop-color: #02b3e4"/>
                <stop offset="1" style="stop-color: #01647f"/>
              </linearGradient><linearGradient id="gradient-18" gradientUnits="objectBoundingBox" x1="0.5" y1="0" x2="0.5" y2="1">
                <stop offset="0" style="stop-color: #02b3e4"/>
                <stop offset="1" style="stop-color: #01647f"/>
              </linearGradient><linearGradient id="gradient-19" gradientUnits="objectBoundingBox" x1="0.5" y1="0" x2="0.5" y2="1">
                <stop offset="0" style="stop-color: #02b3e4"/>
                <stop offset="1" style="stop-color: #01647f"/>
              </linearGradient><linearGradient id="gradient-20" gradientUnits="objectBoundingBox" x1="0.5" y1="0" x2="0.5" y2="1">
                <stop offset="0" style="stop-color: #02b3e4"/>
                <stop offset="1" style="stop-color: #01647f"/>
              </linearGradient><linearGradient id="gradient-21" gradientUnits="objectBoundingBox" x1="0.5" y1="0" x2="0.5" y2="1">
                <stop offset="0" style="stop-color: #02b3e4"/>
                <stop offset="1" style="stop-color: #01647f"/>
              </linearGradient><linearGradient id="gradient-22" gradientUnits="objectBoundingBox" x1="0.5" y1="0" x2="0.5" y2="1">
                <stop offset="0" style="stop-color: #02b3e4"/>
                <stop offset="1" style="stop-color: #01647f"/>
              </linearGradient><linearGradient id="gradient-23" gradientUnits="objectBoundingBox" x1="0.5" y1="0" x2="0.5" y2="1">
                <stop offset="0" style="stop-color: #02b3e4"/>
                <stop offset="1" style="stop-color: #01647f"/>
              </linearGradient><linearGradient id="gradient-24" gradientUnits="objectBoundingBox" x1="0.5" y1="0" x2="0.5" y2="1">
                <stop offset="0" style="stop-color: #02b3e4"/>
                <stop offset="1" style="stop-color: #01647f"/>
              </linearGradient><linearGradient id="gradient-25" gradientUnits="objectBoundingBox" x1="0.5" y1="0" x2="0.5" y2="1">
                <stop offset="0" style="stop-color: #02b3e4"/>
                <stop offset="1" style="stop-color: #01647f"/>
              </linearGradient><linearGradient id="gradient-26" gradientUnits="objectBoundingBox" x1="0.5" y1="0" x2="0.5" y2="1">
                <stop offset="0" style="stop-color: #02b3e4"/>
                <stop offset="1" style="stop-color: #01647f"/>
              </linearGradient><linearGradient id="gradient-27" gradientUnits="objectBoundingBox" x1="0.5" y1="0" x2="0.5" y2="1">
                <stop offset="0" style="stop-color: #02b3e4"/>
                <stop offset="1" style="stop-color: #01647f"/>
              </linearGradient><linearGradient id="gradient-28" gradientUnits="objectBoundingBox" x1="0.5" y1="0" x2="0.5" y2="1">
                <stop offset="0" style="stop-color: #02b3e4"/>
                <stop offset="1" style="stop-color: #01647f"/>
              </linearGradient><linearGradient id="gradient-29" gradientUnits="objectBoundingBox" x1="0.5" y1="0" x2="0.5" y2="1">
                <stop offset="0" style="stop-color: #02b3e4"/>
                <stop offset="1" style="stop-color: #01647f"/>
              </linearGradient><linearGradient id="gradient-30" gradientUnits="objectBoundingBox" x1="0.5" y1="0" x2="0.5" y2="1">
                <stop offset="0" style="stop-color: #02b3e4"/>
                <stop offset="1" style="stop-color: #01647f"/>
              </linearGradient><linearGradient id="gradient-31" gradientUnits="objectBoundingBox" x1="0.5" y1="0" x2="0.5" y2="1">
                <stop offset="0" style="stop-color: #02b3e4"/>
                <stop offset="1" style="stop-color: #01647f"/>
              </linearGradient><linearGradient id="gradient-32" gradientUnits="objectBoundingBox" x1="0.5" y1="0" x2="0.5" y2="1">
                <stop offset="0" style="stop-color: #02b3e4"/>
                <stop offset="1" style="stop-color: #01647f"/>
              </linearGradient><linearGradient id="gradient-33" gradientUnits="objectBoundingBox" x1="0.5" y1="0" x2="0.5" y2="1">
                <stop offset="0" style="stop-color: #02b3e4"/>
                <stop offset="1" style="stop-color: #01647f"/>
              </linearGradient><linearGradient id="gradient-34" gradientUnits="objectBoundingBox" x1="0.5" y1="0" x2="0.5" y2="1">
                <stop offset="0" style="stop-color: #02b3e4"/>
                <stop offset="1" style="stop-color: #01647f"/>
              </linearGradient><linearGradient id="gradient-35" gradientUnits="objectBoundingBox" x1="0.5" y1="0" x2="0.5" y2="1">
                <stop offset="0" style="stop-color: #02b3e4"/>
                <stop offset="1" style="stop-color: #01647f"/>
              </linearGradient><linearGradient id="gradient-36" gradientUnits="objectBoundingBox" x1="0.5" y1="0" x2="0.5" y2="1">
                <stop offset="0" style="stop-color: #02b3e4"/>
                <stop offset="1" style="stop-color: #01647f"/>
              </linearGradient><linearGradient id="gradient-37" gradientUnits="objectBoundingBox" x1="0.5" y1="0" x2="0.5" y2="1">
                <stop offset="0" style="stop-color: #02b3e4"/>
                <stop offset="1" style="stop-color: #01647f"/>
              </linearGradient><linearGradient id="gradient-38" gradientUnits="objectBoundingBox" x1="0.5" y1="0" x2="0.5" y2="1">
                <stop offset="0" style="stop-color: #02b3e4"/>
                <stop offset="1" style="stop-color: #01647f"/>
              </linearGradient><linearGradient id="gradient-39" gradientUnits="objectBoundingBox" x1="0.5" y1="0" x2="0.5" y2="1">
                <stop offset="0" style="stop-color: #02b3e4"/>
                <stop offset="1" style="stop-color: #01647f"/>
              </linearGradient><linearGradient id="gradient-40" gradientUnits="objectBoundingBox" x1="0.5" y1="0" x2="0.5" y2="1">
                <stop offset="0" style="stop-color: #02b3e4"/>
                <stop offset="1" style="stop-color: #01647f"/>
              </linearGradient></defs><rect id="ee-background" x="0" y="0" width="328.5" height="284.1000061035156" style="fill: white; fill-opacity: 0; pointer-events: none;"/>


<g id="logos">
	<g>
		
		
	</g>
	<g transform="matrix(1, 0, 0, 1, -372.14849853515625, -141.9033966064453)">
		<g>
			<path class="st3" d="M700.9,405.3c0,11.4-70,20.6-156.4,20.6c-86.4,0-156.4-9.2-156.4-20.6c0-11.4,70-20.6,156.4-20.6&#10;&#9;&#9;&#9;&#9;C630.8,384.7,700.9,393.9,700.9,405.3z" style="fill: url('#gradient-0');"/>
			<path class="st4" d="M544.4,385.1c84.6,0,153.1,9,153.1,20.2c0,11.1-68.6,20.2-153.1,20.2c-84.6,0-153.1-9-153.1-20.2&#10;&#9;&#9;&#9;&#9;C391.3,394.2,459.9,385.1,544.4,385.1z" style="fill: url('#gradient-1');"/>
			<path class="st5" d="M544.4,385.6c82.7,0,149.8,8.8,149.8,19.7c0,10.9-67.1,19.7-149.8,19.7c-82.7,0-149.8-8.8-149.8-19.7&#10;&#9;&#9;&#9;&#9;C394.7,394.4,461.7,385.6,544.4,385.6z" style="fill: url('#gradient-2');"/>
			<path class="st6" d="M544.4,386c80.9,0,146.5,8.6,146.5,19.3c0,10.7-65.6,19.3-146.5,19.3c-80.9,0-146.5-8.6-146.5-19.3&#10;&#9;&#9;&#9;&#9;C398,394.7,463.6,386,544.4,386z" style="fill: url('#gradient-3');"/>
			<path class="st7" d="M544.4,386.4c79.1,0,143.1,8.4,143.1,18.9c0,10.4-64.1,18.9-143.1,18.9c-79.1,0-143.1-8.5-143.1-18.9&#10;&#9;&#9;&#9;&#9;C401.3,394.9,465.4,386.4,544.4,386.4z" style="fill: url('#gradient-4');"/>
			<path class="st8" d="M544.4,386.9c77.2,0,139.8,8.3,139.8,18.4c0,10.2-62.6,18.4-139.8,18.4c-77.2,0-139.8-8.3-139.8-18.4&#10;&#9;&#9;&#9;&#9;C404.6,395.1,467.2,386.9,544.4,386.9z" style="fill: url('#gradient-5');"/>
			<path class="st9" d="M544.4,387.3c75.4,0,136.5,8.1,136.5,18c0,9.9-61.1,18-136.5,18c-75.4,0-136.5-8.1-136.5-18&#10;&#9;&#9;&#9;&#9;C408,395.4,469.1,387.3,544.4,387.3z" style="fill: url('#gradient-6');"/>
			<path class="st10" d="M544.4,387.8c73.5,0,133.2,7.9,133.2,17.6c0,9.7-59.6,17.6-133.2,17.6c-73.5,0-133.2-7.9-133.2-17.6&#10;&#9;&#9;&#9;&#9;C411.3,395.6,470.9,387.8,544.4,387.8z" style="fill: url('#gradient-7');"/>
			<path class="st11" d="M544.4,388.2c71.7,0,129.8,7.7,129.8,17.1c0,9.5-58.1,17.1-129.8,17.1c-71.7,0-129.8-7.7-129.8-17.1&#10;&#9;&#9;&#9;&#9;C414.6,395.9,472.7,388.2,544.4,388.2z" style="fill: url('#gradient-8');"/>
			<path class="st12" d="M544.4,388.6c69.9,0,126.5,7.5,126.5,16.7c0,9.2-56.6,16.7-126.5,16.7c-69.9,0-126.5-7.5-126.5-16.7&#10;&#9;&#9;&#9;&#9;C417.9,396.1,474.6,388.6,544.4,388.6z" style="fill: url('#gradient-9');"/>
			<path class="st13" d="M544.4,389.1c68,0,123.2,7.3,123.2,16.2c0,9-55.2,16.2-123.2,16.2c-68,0-123.2-7.3-123.2-16.2&#10;&#9;&#9;&#9;&#9;C421.3,396.4,476.4,389.1,544.4,389.1z" style="fill: url('#gradient-10');"/>
			<path class="st14" d="M544.4,389.5c66.2,0,119.9,7.1,119.9,15.8c0,8.7-53.7,15.8-119.9,15.8s-119.9-7.1-119.9-15.8&#10;&#9;&#9;&#9;&#9;C424.6,396.6,478.2,389.5,544.4,389.5z" style="fill: url('#gradient-11');"/>
			<path class="st15" d="M544.4,390c64.4,0,116.5,6.9,116.5,15.4c0,8.5-52.2,15.4-116.5,15.4c-64.4,0-116.5-6.9-116.5-15.4&#10;&#9;&#9;&#9;&#9;C427.9,396.8,480.1,390,544.4,390z" style="fill: url('#gradient-12');"/>
			<path class="st16" d="M544.4,390.4c62.5,0,113.2,6.7,113.2,14.9c0,8.2-50.7,14.9-113.2,14.9c-62.5,0-113.2-6.7-113.2-14.9&#10;&#9;&#9;&#9;&#9;C431.2,397.1,481.9,390.4,544.4,390.4z" style="fill: url('#gradient-13');"/>
			<path class="st17" d="M544.4,390.8c60.7,0,109.9,6.5,109.9,14.5c0,8-49.2,14.5-109.9,14.5s-109.9-6.5-109.9-14.5&#10;&#9;&#9;&#9;&#9;C434.5,397.3,483.8,390.8,544.4,390.8z" style="fill: url('#gradient-14');"/>
			<path class="st18" d="M544.4,391.3c58.9,0,106.6,6.3,106.6,14c0,7.8-47.7,14.1-106.6,14.1c-58.9,0-106.6-6.3-106.6-14.1&#10;&#9;&#9;&#9;&#9;C437.9,397.6,485.6,391.3,544.4,391.3z" style="fill: url('#gradient-15');"/>
			<path d="M 647.600021 405.299988 A 103.199997 13.6 0 0 1 544.400024 418.899988 A 103.199997 13.6 0 0 1 441.200027 405.299988 A 103.199997 13.6 0 0 1 544.400024 391.699987 A 103.199997 13.6 0 0 1 647.600021 405.299988 Z" class="st19" style="fill: url('#gradient-16');"/>
			<path d="M 644.300026 405.299988 A 99.900002 13.2 0 0 1 544.400024 418.499988 A 99.900002 13.2 0 0 1 444.500023 405.299988 A 99.900002 13.2 0 0 1 544.400024 392.099988 A 99.900002 13.2 0 0 1 644.300026 405.299988 Z" class="st20" style="fill: url('#gradient-17');"/>
			<path class="st21" d="M544.4,392.6c53.3,0,96.6,5.7,96.6,12.7c0,7-43.2,12.7-96.6,12.7c-53.3,0-96.6-5.7-96.6-12.7&#10;&#9;&#9;&#9;&#9;C447.8,398.3,491.1,392.6,544.4,392.6z" style="fill: url('#gradient-18');"/>
			<path class="st22" d="M544.4,393c51.5,0,93.3,5.5,93.3,12.3c0,6.8-41.8,12.3-93.3,12.3c-51.5,0-93.3-5.5-93.3-12.3&#10;&#9;&#9;&#9;&#9;C451.2,398.5,492.9,393,544.4,393z" style="fill: url('#gradient-19');"/>
			<path class="st23" d="M544.4,393.5c49.7,0,89.9,5.3,89.9,11.9c0,6.5-40.3,11.9-89.9,11.9s-89.9-5.3-89.9-11.9&#10;&#9;&#9;&#9;&#9;C454.5,398.8,494.8,393.5,544.4,393.5z" style="fill: url('#gradient-20');"/>
			<path class="st24" d="M544.4,393.9c47.8,0,86.6,5.1,86.6,11.4c0,6.3-38.8,11.4-86.6,11.4c-47.8,0-86.6-5.1-86.6-11.4&#10;&#9;&#9;&#9;&#9;C457.8,399,496.6,393.9,544.4,393.9z" style="fill: url('#gradient-21');"/>
			<path class="st25" d="M544.4,394.3c46,0,83.3,4.9,83.3,11c0,6.1-37.3,11-83.3,11c-46,0-83.3-4.9-83.3-11&#10;&#9;&#9;&#9;&#9;C461.1,399.3,498.4,394.3,544.4,394.3z" style="fill: url('#gradient-22');"/>
			<path class="st26" d="M544.4,394.8c44.2,0,80,4.7,80,10.5c0,5.8-35.8,10.5-80,10.5c-44.2,0-80-4.7-80-10.5&#10;&#9;&#9;&#9;&#9;C464.5,399.5,500.3,394.8,544.4,394.8z" style="fill: url('#gradient-23');"/>
			<path class="st27" d="M544.4,395.2c42.3,0,76.6,4.5,76.6,10.1c0,5.6-34.3,10.1-76.6,10.1c-42.3,0-76.6-4.5-76.6-10.1&#10;&#9;&#9;&#9;&#9;C467.8,399.7,502.1,395.2,544.4,395.2z" style="fill: url('#gradient-24');"/>
			<path class="st28" d="M544.4,395.7c40.5,0,73.3,4.3,73.3,9.7c0,5.3-32.8,9.7-73.3,9.7c-40.5,0-73.3-4.3-73.3-9.7&#10;&#9;&#9;&#9;&#9;C471.1,400,503.9,395.7,544.4,395.7z" style="fill: url('#gradient-25');"/>
			<path d="M 614.400024 405.299988 A 70 9.2 0 0 1 544.400024 414.499988 A 70 9.2 0 0 1 474.400024 405.299988 A 70 9.2 0 0 1 544.400024 396.099988 A 70 9.2 0 0 1 614.400024 405.299988 Z" class="st29" style="fill: url('#gradient-26');"/>
			<path class="st30" d="M544.4,396.5c36.8,0,66.7,3.9,66.7,8.8c0,4.9-29.8,8.8-66.7,8.8c-36.8,0-66.7-3.9-66.7-8.8&#10;&#9;&#9;&#9;&#9;C477.8,400.5,507.6,396.5,544.4,396.5z" style="fill: url('#gradient-27');"/>
			<path d="M 607.700024 405.299988 A 63.299999 8.4 0 0 1 544.400024 413.699987 A 63.299999 8.4 0 0 1 481.100025 405.299988 A 63.299999 8.4 0 0 1 544.400024 396.899988 A 63.299999 8.4 0 0 1 607.700024 405.299988 Z" class="st30" style="fill: url('#gradient-28');"/>
			<path d="M 604.400024 405.299988 A 60 7.9 0 0 1 544.400024 413.199988 A 60 7.9 0 0 1 484.400024 405.299988 A 60 7.9 0 0 1 544.400024 397.399988 A 60 7.9 0 0 1 604.400024 405.299988 Z" class="st31" style="fill: url('#gradient-29');"/>
			<path d="M 601.100025 405.299988 A 56.700001 7.5 0 0 1 544.400024 412.799988 A 56.700001 7.5 0 0 1 487.700024 405.299988 A 56.700001 7.5 0 0 1 544.400024 397.799988 A 56.700001 7.5 0 0 1 601.100025 405.299988 Z" class="st32" style="fill: url('#gradient-30');"/>
			<path d="M 597.800026 405.299988 A 53.400002 7 0 0 1 544.400024 412.299988 A 53.400002 7 0 0 1 491.000023 405.299988 A 53.400002 7 0 0 1 544.400024 398.299988 A 53.400002 7 0 0 1 597.800026 405.299988 Z" class="st33" style="fill: url('#gradient-31');"/>
			<path d="M 594.400024 405.299988 A 50 6.6 0 0 1 544.400024 411.899988 A 50 6.6 0 0 1 494.400024 405.299988 A 50 6.6 0 0 1 544.400024 398.699988 A 50 6.6 0 0 1 594.400024 405.299988 Z" class="st34" style="fill: url('#gradient-32');"/>
			<path d="M 591.100025 405.299988 A 46.700001 6.2 0 0 1 544.400024 411.499988 A 46.700001 6.2 0 0 1 497.700024 405.299988 A 46.700001 6.2 0 0 1 544.400024 399.099988 A 46.700001 6.2 0 0 1 591.100025 405.299988 Z" class="st35" style="fill: url('#gradient-33');"/>
			<path d="M 587.800026 405.299988 A 43.400002 5.7 0 0 1 544.400024 410.999988 A 43.400002 5.7 0 0 1 501.000023 405.299988 A 43.400002 5.7 0 0 1 544.400024 399.599988 A 43.400002 5.7 0 0 1 587.800026 405.299988 Z" class="st36" style="fill: url('#gradient-34');"/>
			<path d="M 584.500023 405.299988 A 40.099998 5.3 0 0 1 544.400024 410.599988 A 40.099998 5.3 0 0 1 504.300026 405.299988 A 40.099998 5.3 0 0 1 544.400024 399.999988 A 40.099998 5.3 0 0 1 584.500023 405.299988 Z" class="st37" style="fill: url('#gradient-35');"/>
			<path d="M 581.200024 405.299988 A 36.799999 4.8 0 0 1 544.400024 410.099988 A 36.799999 4.8 0 0 1 507.600025 405.299988 A 36.799999 4.8 0 0 1 544.400024 400.499988 A 36.799999 4.8 0 0 1 581.200024 405.299988 Z" class="st38" style="fill: url('#gradient-36');"/>
			<path d="M 577.800026 405.299988 A 33.400002 4.4 0 0 1 544.400024 409.699988 A 33.400002 4.4 0 0 1 511.000023 405.299988 A 33.400002 4.4 0 0 1 544.400024 400.899988 A 33.400002 4.4 0 0 1 577.800026 405.299988 Z" class="st39" style="fill: url('#gradient-37');"/>
			<path d="M 574.500025 405.299988 A 30.1 4 0 0 1 544.400024 409.299988 A 30.1 4 0 0 1 514.300024 405.299988 A 30.1 4 0 0 1 544.400024 401.299988 A 30.1 4 0 0 1 574.500025 405.299988 Z" class="st40" style="fill: url('#gradient-38');"/>
			<path class="st41" d="M571.2,405.3c0,1.9-12,3.5-26.8,3.5c-14.8,0-26.8-1.6-26.8-3.5c0-2,12-3.5,26.8-3.5&#10;&#9;&#9;&#9;&#9;C559.2,401.8,571.2,403.4,571.2,405.3z" style="fill: url('#gradient-39');"/>
		</g>
		<g>
			<linearGradient id="SVGID_4_" gradientUnits="userSpaceOnUse" x1="544.4427" y1="141.7808" x2="544.4427" y2="335.9463">
				<stop offset="0" style="stop-color:#E8C453"/>
				<stop offset="1" style="stop-color:#BFA344"/>
			</linearGradient>
			<path class="st42" d="M679.7,317.4c8.6,0,8.3-10.7,8.3-10.7c-11.1,0-19.2-3.6-23.4-20.6c8.2-6.4,14.9-15.2,18.7-25.6&#10;&#9;&#9;&#9;&#9;c-6.3,7.6-13.3,13.1-20.4,16.8c-1-7.5-1.6-16.8-1.6-28.3c0-49.7-16.1-107.2-70.1-107.2c-12.2,0-22.1,2.1-30,5.5c0,0,0,0,0,0&#10;&#9;&#9;&#9;&#9;c-23.5,10.2-30.1,32.4-30.1,49.3c0,23.9,16.9,44.3,41.6,44.3l-0.4,2.2c-28.1-0.2-50-16.9-50-46.5c0-9.2,1.8-26.8,14-41.4&#10;&#9;&#9;&#9;&#9;c3.5-4.2,7.6-7.9,12.1-10.9c-9-1.6-19.4-2.5-31.5-2.5v0c-144.5,0-119.9,135.4-103.5,194.2h44c0-14.2,1.7-51,33.5-51v0&#10;&#9;&#9;&#9;&#9;c31.8,0,33.5,36.8,33.5,51h44c0-20.4,6.9-44,13.9-67.6c12.9,23.7,33.9,32.2,53.7,29.7c10.5,29.5,36.4,30.1,51.7,30.1&#10;&#9;&#9;&#9;&#9;C688,328.2,688,317.4,679.7,317.4z M619.6,202.2c3.8,0,6.9,3.1,6.9,6.9c0,3.8-3.1,7-6.9,7c-3.8,0-7-3.1-7-7&#10;&#9;&#9;&#9;&#9;C612.7,205.3,615.8,202.2,619.6,202.2z M603.4,266.1h1c10.6,10.2,21,9.3,27.6,9.7c0.2,2.4,0.4,4.8,0.7,7&#10;&#9;&#9;&#9;&#9;C621.2,281.2,610.7,275.3,603.4,266.1z" style="fill: url('#gradient-40');"/>
		</g>
	</g>
	
	
	
	
	
	
</g>
</svg>